<?xml version="1.0" standalone="no"?>
<!DOCTYPE svg PUBLIC "-//W3C//DTD SVG 20010904//EN"
 "http://www.w3.org/TR/2001/REC-SVG-20010904/DTD/svg10.dtd">
<svg version="1.0" xmlns="http://www.w3.org/2000/svg"
 width="375.000000pt" height="96.000000pt" viewBox="0 0 375.000000 96.000000"
 preserveAspectRatio="xMidYMid meet">

<g transform="translate(0.000000,96.000000) scale(0.100000,-0.100000)"
fill="#000000" stroke="none">
<path d="M243 709 c-38 -11 -83 -62 -83 -95 0 -21 4 -24 38 -24 31 0 40 5 54
30 15 27 22 30 63 30 64 0 85 -13 85 -54 0 -44 -19 -58 -118 -91 -96 -31 -122
-59 -122 -132 0 -91 45 -128 155 -128 39 0 85 6 103 14 54 23 62 50 62 225 0
151 -1 155 -26 185 -39 46 -129 64 -211 40z m157 -298 c0 -86 -12 -101 -80
-101 -56 0 -80 18 -80 60 0 35 32 62 95 80 25 7 48 17 51 21 11 19 14 7 14
-60z"/>
</g>
</svg>
